<svg width="112" height="27" viewBox="0 0 112 27" fill="none" xmlns="http://www.w3.org/2000/svg">
<path d="M0.124 4.076C0.124 2.972 0.556 2.096 1.42 1.448C2.284 0.775999 3.46 0.439999 4.948 0.439999L12.508 19.448L11.68 21.716L12.04 21.86L20.14 0.475998C21.604 0.475998 22.768 0.811998 23.632 1.484C24.52 2.132 24.964 3.008 24.964 4.112V26.324C21.82 26.324 20.248 25.148 20.248 22.796V11.276L21.472 7.964L21.076 7.82L14.488 25.028C14.32 25.412 14.056 25.724 13.696 25.964C13.36 26.204 12.976 26.324 12.544 26.324C12.112 26.324 11.716 26.204 11.356 25.964C11.02 25.724 10.768 25.4 10.6 24.992L4.012 7.784L3.616 7.928L4.804 11.24V22.796C4.804 25.148 3.244 26.324 0.124 26.324V4.076ZM36.7222 26.324C35.1622 26.324 33.7462 26.048 32.4742 25.496C31.2262 24.92 30.2422 24.128 29.5222 23.12C28.8022 22.112 28.4422 20.972 28.4422 19.7V14.624C28.4422 13.328 28.7902 12.152 29.4862 11.096C30.2062 10.04 31.1902 9.212 32.4382 8.612C33.6862 7.988 35.1142 7.676 36.7222 7.676C38.3302 7.676 39.7582 7.988 41.0062 8.612C42.2782 9.212 43.2622 10.04 43.9582 11.096C44.6782 12.152 45.0382 13.328 45.0382 14.624V19.7C45.0382 20.972 44.6662 22.112 43.9222 23.12C43.2022 24.128 42.2062 24.92 40.9342 25.496C39.6862 26.048 38.2822 26.324 36.7222 26.324ZM36.7222 22.472C37.9222 22.472 38.8582 22.196 39.5302 21.644C40.2262 21.092 40.5742 20.348 40.5742 19.412V14.84C40.5742 13.856 40.2262 13.064 39.5302 12.464C38.8582 11.84 37.9222 11.528 36.7222 11.528C35.5462 11.528 34.6102 11.84 33.9142 12.464C33.2182 13.064 32.8702 13.856 32.8702 14.84V19.412C32.8702 20.348 33.2182 21.092 33.9142 21.644C34.6102 22.196 35.5462 22.472 36.7222 22.472ZM47.8662 11.132C47.8662 10.028 48.2142 9.176 48.9102 8.576C49.6302 7.976 50.7102 7.676 52.1502 7.676V9.836C51.8622 10.172 51.5742 10.556 51.2862 10.988L51.5022 11.132C52.2222 10.052 53.1462 9.212 54.2742 8.612C55.4022 7.988 56.6502 7.676 58.0182 7.676C59.2422 7.676 60.3222 7.952 61.2582 8.504C62.1942 9.056 62.9142 9.812 63.4182 10.772C63.9462 11.732 64.2102 12.812 64.2102 14.012V23.588C64.2102 24.548 63.8382 25.244 63.0942 25.676C62.3502 26.108 61.2222 26.324 59.7102 26.324V14.66C59.7102 13.748 59.4342 13.004 58.8822 12.428C58.3542 11.852 57.5742 11.564 56.5422 11.564C55.3182 11.564 54.3102 11.948 53.5182 12.716C52.7262 13.46 52.3302 14.396 52.3302 15.524V23.588C52.3302 24.548 51.9702 25.244 51.2502 25.676C50.5302 26.108 49.4022 26.324 47.8662 26.324V11.132ZM68.2217 2.996C68.2217 2.396 68.4497 1.88 68.9057 1.448C69.3857 1.016 69.9617 0.799998 70.6337 0.799998H86.6897C86.6897 2.24 86.4377 3.296 85.9337 3.968C85.4537 4.616 84.6617 4.94 83.5577 4.94H73.0457V11.204H82.6217C82.6217 12.644 82.3697 13.7 81.8657 14.372C81.3857 15.02 80.5937 15.344 79.4897 15.344H73.0457V21.86H84.3137C85.3937 21.86 86.1737 22.196 86.6537 22.868C87.1577 23.516 87.4097 24.56 87.4097 26H70.6337C69.9617 26 69.3857 25.796 68.9057 25.388C68.4497 24.956 68.2217 24.428 68.2217 23.804V2.996ZM91.9994 26.324C90.8714 26.324 89.9474 25.916 89.2274 25.1L97.8314 13.04L89.6234 1.376C89.8874 1.112 90.2474 0.895998 90.7034 0.727999C91.1834 0.559999 91.6754 0.475998 92.1794 0.475998C92.8754 0.475998 93.5234 0.595998 94.1234 0.835998C94.7234 1.052 95.1434 1.352 95.3834 1.736L100.207 9.08L99.2354 10.484L99.5954 10.736L105.643 1.736C105.883 1.352 106.303 1.052 106.903 0.835998C107.503 0.595998 108.151 0.475998 108.847 0.475998C109.351 0.475998 109.831 0.559999 110.287 0.727999C110.767 0.895998 111.139 1.112 111.403 1.376L103.195 13.04L111.799 25.1C111.055 25.916 110.131 26.324 109.027 26.324C107.803 26.324 106.879 25.88 106.255 24.992L100.495 16.532L94.7714 24.992C94.4834 25.4 94.0874 25.724 93.5834 25.964C93.1034 26.204 92.5754 26.324 91.9994 26.324Z" fill="url(#paint0_linear_1_6)"/>
<defs>
<linearGradient id="paint0_linear_1_6" x1="5.25" y1="4.55682" x2="129.571" y2="29.7053" gradientUnits="userSpaceOnUse">
<stop stop-color="#C03333"/>
<stop offset="1" stop-color="#CD1FF9"/>
</linearGradient>
</defs>
</svg>
